<svg width="391" height="101" viewBox="0 0 391 101" fill="none" xmlns="http://www.w3.org/2000/svg">
<path d="M21.5 77.8C17.3 77.8 13.6 77.0667 10.4 75.6C7.2 74.1333 4.73333 72.1 3 69.5C1.26667 66.8333 0.4 63.7667 0.4 60.3C0.4 57.3667 1 54.7 2.2 52.3C3.46667 49.9 5.13333 48 7.2 46.6C9.33333 45.2 11.6667 44.5 14.2 44.5C16.5333 44.5 18.5 45.1 20.1 46.3C21.7 47.4333 22.7 49.0333 23.1 51.1C19.6333 51.1 16.8667 52.0333 14.8 53.9C12.7333 55.7 11.7 58.1667 11.7 61.3C11.7 64.1667 12.5667 66.4667 14.3 68.2C16.0333 69.9333 18.3333 70.8 21.2 70.8C24.7333 70.8 27.6333 69.6333 29.9 67.3C32.2333 64.9 33.4 61.9 33.4 58.3C33.4 55.1667 32.5333 52.2 30.8 49.4C29.0667 46.6 26.4667 43.2 23 39.2C19.4 35.0667 16.6667 31.5333 14.8 28.6C13 25.6 12.1 22.3333 12.1 18.8C12.1 15.3333 13.0667 12.2333 15 9.5C16.9333 6.7 19.6 4.5 23 2.9C26.4 1.3 30.2333 0.499995 34.5 0.499995C39.9 0.499995 44.2 1.76666 47.4 4.3C50.6667 6.83333 52.3 10.2333 52.3 14.5C52.3 17.3 51.6 19.5667 50.2 21.3C48.8 23.0333 46.9667 23.9 44.7 23.9C42.1667 23.9 40.1333 22.8667 38.6 20.8C39.8667 19.8667 40.8667 18.6333 41.6 17.1C42.3333 15.5667 42.7 13.9667 42.7 12.3C42.7 10.1667 42.0667 8.46666 40.8 7.2C39.5333 5.93333 37.8 5.3 35.6 5.3C32.9333 5.3 30.7333 6.26666 29 8.2C27.3333 10.0667 26.5 12.4667 26.5 15.4C26.5 18.0667 27.2667 20.5667 28.8 22.9C30.3333 25.1667 32.7333 28.1 36 31.7C38.6667 34.5667 40.8 37.0333 42.4 39.1C44.0667 41.1667 45.4667 43.5667 46.6 46.3C47.8 48.9667 48.4 51.8667 48.4 55C48.4 59.2667 47.2 63.1333 44.8 66.6C42.4667 70.0667 39.2333 72.8 35.1 74.8C31.0333 76.8 26.5 77.8 21.5 77.8ZM68.3313 76.6C63.3979 76.6 59.5646 75.3333 56.8313 72.8C54.0979 70.2 52.7312 66.1667 52.7312 60.7C52.7312 56.1 53.6312 51.0333 55.4313 45.5C57.2979 39.9667 60.2313 35.2 64.2313 31.2C68.2979 27.1333 73.4313 25.1 79.6313 25.1C83.6313 25.1 86.4646 25.9667 88.1313 27.7C89.8646 29.4333 90.7313 31.6333 90.7313 34.3C90.7313 36.6333 90.2313 38.4333 89.2313 39.7C88.2313 40.9667 86.9646 41.6 85.4313 41.6C84.2979 41.6 83.1313 41.2 81.9313 40.4C82.7313 38.2 83.1313 36.2333 83.1313 34.5C83.1313 33.2333 82.8979 32.2333 82.4313 31.5C81.9646 30.7667 81.2646 30.4 80.3313 30.4C78.3313 30.4 76.3313 32.0333 74.3313 35.3C72.3313 38.5667 70.6979 42.5333 69.4313 47.2C68.1646 51.8667 67.5313 56.0667 67.5313 59.8C67.5313 63.0667 68.0979 65.3 69.2313 66.5C70.3646 67.6333 72.1979 68.2 74.7313 68.2C78.3313 68.2 81.3979 67.3667 83.9313 65.7C86.5313 64.0333 89.3646 61.5 92.4313 58.1H95.8313C88.4313 70.4333 79.2646 76.6 68.3313 76.6ZM107.01 76.4C102.077 76.4 98.1768 75.1333 95.3102 72.6C92.4435 70.0667 91.0102 66.0667 91.0102 60.6C91.0102 56.0667 91.9435 51.0333 93.8102 45.5C95.6768 39.9667 98.6768 35.2 102.81 31.2C106.943 27.1333 112.143 25.1 118.41 25.1C126.943 25.1 131.21 30.4333 131.21 41.1V41.2C131.41 41.2667 131.777 41.3 132.31 41.3C134.51 41.3 137.043 40.7333 139.91 39.6C142.777 38.4 145.377 36.9667 147.71 35.3L148.61 38C146.677 40.0667 144.143 41.8333 141.01 43.3C137.943 44.7 134.577 45.7 130.91 46.3C130.377 52.3667 129.01 57.6667 126.81 62.2C124.61 66.7333 121.777 70.2333 118.31 72.7C114.843 75.1667 111.077 76.4 107.01 76.4ZM111.01 67.4C112.61 67.4 114.21 66.5 115.81 64.7C117.41 62.8333 118.81 60.3333 120.01 57.2C121.21 54 122.077 50.4667 122.61 46.6C120.81 46.2 119.91 44.8 119.91 42.4C119.91 39.6667 120.943 37.8667 123.01 37C122.877 34.8 122.543 33.3 122.01 32.5C121.477 31.6333 120.543 31.2 119.21 31.2C117.01 31.2 114.877 32.8 112.81 36C110.743 39.2 109.077 43.0333 107.81 47.5C106.543 51.9667 105.91 55.9 105.91 59.3C105.91 62.5 106.277 64.6667 107.01 65.8C107.743 66.8667 109.077 67.4 111.01 67.4ZM150.955 76.4C146.022 76.4 142.122 75.1333 139.255 72.6C136.389 70.0667 134.955 66.0667 134.955 60.6C134.955 56.0667 135.889 51.0333 137.755 45.5C139.622 39.9667 142.622 35.2 146.755 31.2C150.889 27.1333 156.089 25.1 162.355 25.1C170.889 25.1 175.155 30.4333 175.155 41.1V41.2C175.355 41.2667 175.722 41.3 176.255 41.3C178.455 41.3 180.989 40.7333 183.855 39.6C186.722 38.4 189.322 36.9667 191.655 35.3L192.555 38C190.622 40.0667 188.089 41.8333 184.955 43.3C181.889 44.7 178.522 45.7 174.855 46.3C174.322 52.3667 172.955 57.6667 170.755 62.2C168.555 66.7333 165.722 70.2333 162.255 72.7C158.789 75.1667 155.022 76.4 150.955 76.4ZM154.955 67.4C156.555 67.4 158.155 66.5 159.755 64.7C161.355 62.8333 162.755 60.3333 163.955 57.2C165.155 54 166.022 50.4667 166.555 46.6C164.755 46.2 163.855 44.8 163.855 42.4C163.855 39.6667 164.889 37.8667 166.955 37C166.822 34.8 166.489 33.3 165.955 32.5C165.422 31.6333 164.489 31.2 163.155 31.2C160.955 31.2 158.822 32.8 156.755 36C154.689 39.2 153.022 43.0333 151.755 47.5C150.489 51.9667 149.855 55.9 149.855 59.3C149.855 62.5 150.222 64.6667 150.955 65.8C151.689 66.8667 153.022 67.4 154.955 67.4ZM190.201 76.6C187.001 76.6 184.401 75.6 182.401 73.6C180.467 71.6 179.501 68.6 179.501 64.6C179.501 62.9333 179.767 60.7667 180.301 58.1L186.301 30H183.001L183.801 26H187.101L190.101 12.2L204.901 10.2L201.501 26H207.501L206.701 30H200.701L194.301 60C194.034 61 193.901 62.0667 193.901 63.2C193.901 64.5333 194.201 65.5 194.801 66.1C195.467 66.6333 196.534 66.9 198.001 66.9C199.934 66.9 201.734 66.1 203.401 64.5C205.067 62.8333 206.267 60.7 207.001 58.1H211.201C208.734 65.3 205.567 70.2 201.701 72.8C197.834 75.3333 194.001 76.6 190.201 76.6ZM197.861 101C194.728 101 191.994 99.9667 189.661 97.9C187.261 95.9 186.061 93.3333 186.061 90.2C186.061 87.3333 186.794 84.9667 188.261 83.1C189.728 81.2333 191.661 79.7333 194.061 78.6C196.394 77.5333 199.494 76.4 203.361 75.2L215.361 18.1C216.694 11.7 219.028 7.26667 222.361 4.8C225.761 2.33333 229.494 1.1 233.561 1.1C237.628 1.1 241.561 1.66666 245.361 2.79999C249.228 3.93333 254.128 5.66666 260.061 8L249.061 60C248.794 61 248.661 62.0667 248.661 63.2C248.661 64.5333 248.961 65.5 249.561 66.1C250.228 66.6333 251.294 66.9 252.761 66.9C254.694 66.9 256.494 66.1 258.161 64.5C259.828 62.8333 261.028 60.7 261.761 58.1H265.961C263.494 65.3 260.328 70.2 256.461 72.8C252.594 75.3333 248.761 76.6 244.961 76.6C241.761 76.6 239.161 75.6 237.161 73.6C235.228 71.6 234.261 68.6 234.261 64.6C234.261 62.9333 234.528 60.7667 235.061 58.1L245.461 9C244.261 8.53333 242.794 8.16666 241.061 7.89999C239.394 7.56666 238.128 7.4 237.261 7.4C235.861 7.4 234.528 7.96666 233.261 9.1C231.994 10.2333 231.061 12.3 230.461 15.3L228.261 26H237.561L236.761 30H227.461L216.061 84C214.728 90.4 212.361 94.8333 208.961 97.3C205.628 99.7667 201.928 101 197.861 101ZM195.561 92.1C196.761 92.1 197.928 91.4667 199.061 90.2C200.128 89 200.928 87.0333 201.461 84.3L202.661 78.5C199.128 79.7 196.394 81.0667 194.461 82.6C192.528 84.2 191.561 86.2667 191.561 88.8C191.561 89.6 191.961 90.3333 192.761 91C193.561 91.7333 194.494 92.1 195.561 92.1ZM276.346 76.4C271.413 76.4 267.513 75.1333 264.646 72.6C261.779 70.0667 260.346 66.0667 260.346 60.6C260.346 56.0667 261.279 51.0333 263.146 45.5C265.013 39.9667 268.013 35.2 272.146 31.2C276.279 27.1333 281.479 25.1 287.746 25.1C296.279 25.1 300.546 30.4333 300.546 41.1V41.2C300.746 41.2667 301.113 41.3 301.646 41.3C303.846 41.3 306.379 40.7333 309.246 39.6C312.113 38.4 314.713 36.9667 317.046 35.3L317.946 38C316.013 40.0667 313.479 41.8333 310.346 43.3C307.279 44.7 303.913 45.7 300.246 46.3C299.713 52.3667 298.346 57.6667 296.146 62.2C293.946 66.7333 291.113 70.2333 287.646 72.7C284.179 75.1667 280.413 76.4 276.346 76.4ZM280.346 67.4C281.946 67.4 283.546 66.5 285.146 64.7C286.746 62.8333 288.146 60.3333 289.346 57.2C290.546 54 291.413 50.4667 291.946 46.6C290.146 46.2 289.246 44.8 289.246 42.4C289.246 39.6667 290.279 37.8667 292.346 37C292.213 34.8 291.879 33.3 291.346 32.5C290.813 31.6333 289.879 31.2 288.546 31.2C286.346 31.2 284.213 32.8 282.146 36C280.079 39.2 278.413 43.0333 277.146 47.5C275.879 51.9667 275.246 55.9 275.246 59.3C275.246 62.5 275.613 64.6667 276.346 65.8C277.079 66.8667 278.413 67.4 280.346 67.4ZM315.591 76.6C312.391 76.6 309.791 75.6 307.791 73.6C305.858 71.6 304.891 68.6 304.891 64.6C304.891 62.9333 305.158 60.7667 305.691 58.1L312.491 26H326.891L319.691 60C319.491 60.8 319.391 61.6333 319.391 62.5C319.391 65.4333 320.391 66.9 322.391 66.9C324.258 66.9 325.858 66.1333 327.191 64.6C328.525 63 329.591 60.8333 330.391 58.1L337.191 26H351.591L344.391 60C344.058 61.6667 343.891 62.8667 343.891 63.6C343.891 65.8 345.025 66.9 347.291 66.9C350.358 66.9 353.191 64.9667 355.791 61.1C358.458 57.2333 360.591 52.6333 362.191 47.3C363.791 41.9667 364.591 37.3667 364.591 33.5C364.458 33.8333 364.025 34.1 363.291 34.3C362.558 34.4333 361.925 34.5 361.391 34.5C360.258 34.5 359.358 33.9667 358.691 32.9C358.091 31.8333 357.791 30.6667 357.791 29.4C357.791 27.8 358.291 26.5 359.291 25.5C360.358 24.5 361.925 24 363.991 24C366.191 24 367.791 24.8333 368.791 26.5C369.791 28.1 370.291 30.1667 370.291 32.7C370.291 38.7 369.258 45.1333 367.191 52C365.125 58.8 361.958 64.6 357.691 69.4C353.425 74.2 348.125 76.6 341.791 76.6C338.525 76.6 335.858 75.9 333.791 74.5C331.725 73.1 330.391 71 329.791 68.2C326.058 73.8 321.325 76.6 315.591 76.6ZM382.805 76.4C380.605 76.4 378.738 75.6333 377.205 74.1C375.671 72.5667 374.905 70.7 374.905 68.5C374.905 66.3 375.671 64.4333 377.205 62.9C378.738 61.3 380.605 60.5 382.805 60.5C385.005 60.5 386.871 61.3 388.405 62.9C390.005 64.4333 390.805 66.3 390.805 68.5C390.805 70.7 390.005 72.5667 388.405 74.1C386.871 75.6333 385.005 76.4 382.805 76.4Z" fill="black"/>
</svg>
